{"title":"Ko Ante Koti (2012) Telugu Movie PDVD x264 - Exclusive","uid":7981472,"size":733635189,"categoryP":"video","categoryS":"movies","magnet":"?xt=urn:btih:b16be3dacf1e0588f8394067aeb4e3122a669502&amp;dn=Ko+Ante+Koti+%282012%29+Telugu+Movie+PDVD+x264+-+Exclusive&amp;tr=udp%3A%2F%2Ftracker.openbittorrent.com%3A80&amp;tr=udp%3A%2F%2Fopen.demonii.com%3A1337&amp;tr=udp%3A%2F%2Ftracker.coppersurfer.tk%3A6969&amp;tr=udp%3A%2F%2Fexodus.desync.com%3A6969","seeders":1,"leechers":1,"uploader":"tykoon123","files":-1,"time":1357188403,"description":"Poster: &lt;a href=&quot;\nhttp://imgr.us/images/i7gufrpzkaxdvw2iy2.jpg&quot; rel=&quot;nofollow&quot; target=&quot;_NEW&quot;&gt;\nhttp://imgr.us/images/i7gufrpzkaxdvw2iy2.jpg&lt;/a&gt;\n\nInfo:\n\nFormat : Matroska\nFormat version : Version 2\nFile size : 700 MiB\nDuration : 2h 10mn\nOverall bit rate : 750 Kbps\nEncoded date : UTC 2013-01-02 20:14:54\nWriting application : mkvmerge v5.6.0 ('Kenya Kane') built on May 27 2012 16:44:04\nWriting library : libebml v1.2.3 + libmatroska v1.3.0\n\nVideo\nID : 1\nFormat : MPEG-4 Visual\nFormat profile : Advanced Simple@L5\nFormat settings, BVOP : Yes\nFormat settings, QPel : Yes\nFormat settings, GMC : No warppoints\nFormat settings, Matrix : Default (H.263)\nCodec ID : V_MPEG4/ISO/ASP\nCodec ID/Info : Advanced Simple Profile\nDuration : 2h 10mn\nBit rate : 415 Kbps\nWidth : 640 pixels\nHeight : 320 pixels\nDisplay aspect ratio : 2.000\nFrame rate mode : Constant\nFrame rate : 25.000 fps\nColor space : YUV\nChroma subsampling : 4:2:0\nBit depth : 8 bits\nScan type : Progressive\nCompression mode : Lossy\nBits/(Pixel*Frame) : 0.081\nStream size : 387 MiB (55%)\nWriting library : XviD 1.2.1 (UTC 2008-12-04)\nLanguage : English\nDefault : Yes\nForced : No\n\nAudio\nID : 2\nFormat : MPEG Audio\nFormat version : Version 1\nFormat profile : Layer 3\nMode : Joint stereo\nMode extension : MS Stereo\nCodec ID : A_MPEG/L3\nCodec ID/Hint : MP3\nDuration : 2h 10mn\nBit rate mode : Constant\nBit rate : 320 Kbps\nChannel(s) : 2 channels\nSampling rate : 48.0 KHz\nCompression mode : Lossy\nDelay relative to video : 12ms\nStream size : 298 MiB (43%)\nWriting library : LAME3.99.5\nDefault : Yes\nForced : No\n\nScreens: &lt;a href=&quot;\nhttp://www.shotpix.com/images/84789795689447381111.jpg&quot; rel=&quot;nofollow&quot; target=&quot;_NEW&quot;&gt;\nhttp://www.shotpix.com/images/84789795689447381111.jpg&lt;/a&gt; &lt;a href=&quot;\nhttp://www.shotpix.com/images/58530876242938024078.jpg&quot; rel=&quot;nofollow&quot; target=&quot;_NEW&quot;&gt;\nhttp://www.shotpix.com/images/58530876242938024078.jpg&lt;/a&gt; &lt;a href=&quot;\nhttp://www.shotpix.com/images/10699512839569581767.jpg&quot; rel=&quot;nofollow&quot; target=&quot;_NEW&quot;&gt;\nhttp://www.shotpix.com/images/10699512839569581767.jpg&lt;/a&gt; &lt;a href=&quot;\nhttp://www.shotpix.com/images/92016809993046232740.jpg&quot; rel=&quot;nofollow&quot; target=&quot;_NEW&quot;&gt;\nhttp://www.shotpix.com/images/92016809993046232740.jpg&lt;/a&gt; &lt;a href=&quot;\nhttp://www.shotpix.com/images/50676888691572349142.jpg&quot; rel=&quot;nofollow&quot; target=&quot;_NEW&quot;&gt;\nhttp://www.shotpix.com/images/50676888691572349142.jpg&lt;/a&gt;\n\n\n\n","torrent":{"xt":"urn:btih:b16be3dacf1e0588f8394067aeb4e3122a669502","amp;dn":"Ko+Ante+Koti+%282012%29+Telugu+Movie+PDVD+x264+-+Exclusive","amp;tr":["udp%3A%2F%2Ftracker.openbittorrent.com%3A80","udp%3A%2F%2Fopen.demonii.com%3A1337","udp%3A%2F%2Ftracker.coppersurfer.tk%3A6969","udp%3A%2F%2Fexodus.desync.com%3A6969"],"infoHash":"b16be3dacf1e0588f8394067aeb4e3122a669502","infoHashBuffer":{"type":"Buffer","data":[177,107,227,218,207,30,5,136,248,57,64,103,174,180,227,18,42,102,149,2]},"announce":[],"urlList":[]}}